<svg width="115" height="30" viewBox="0 0 115 30" fill="none" xmlns="http://www.w3.org/2000/svg">
<path d="M5.524 25.004H13.804V29H0.484V3.872H5.524V25.004ZM33.5674 18.596C33.5674 19.316 33.5194 19.964 33.4234 20.54H18.8434C18.9634 21.98 19.4674 23.108 20.3554 23.924C21.2434 24.74 22.3354 25.148 23.6314 25.148C25.5034 25.148 26.8354 24.344 27.6274 22.736H33.0634C32.4874 24.656 31.3834 26.24 29.7514 27.488C28.1194 28.712 26.1154 29.324 23.7394 29.324C21.8194 29.324 20.0914 28.904 18.5554 28.064C17.0434 27.2 15.8554 25.988 14.9914 24.428C14.1514 22.868 13.7314 21.068 13.7314 19.028C13.7314 16.964 14.1514 15.152 14.9914 13.592C15.8314 12.032 17.0074 10.832 18.5194 9.992C20.0314 9.152 21.7714 8.732 23.7394 8.732C25.6354 8.732 27.3274 9.14 28.8154 9.956C30.3274 10.772 31.4914 11.936 32.3074 13.448C33.1474 14.936 33.5674 16.652 33.5674 18.596ZM28.3474 17.156C28.3234 15.86 27.8554 14.828 26.9434 14.06C26.0314 13.268 24.9154 12.872 23.5954 12.872C22.3474 12.872 21.2914 13.256 20.4274 14.024C19.5874 14.768 19.0714 15.812 18.8794 17.156H28.3474ZM53.8062 18.596C53.8062 19.316 53.7582 19.964 53.6622 20.54H39.0822C39.2022 21.98 39.7062 23.108 40.5942 23.924C41.4822 24.74 42.5742 25.148 43.8702 25.148C45.7422 25.148 47.0742 24.344 47.8662 22.736H53.3022C52.7262 24.656 51.6222 26.24 49.9902 27.488C48.3582 28.712 46.3542 29.324 43.9782 29.324C42.0582 29.324 40.3302 28.904 38.7942 28.064C37.2822 27.2 36.0942 25.988 35.2302 24.428C34.3902 22.868 33.9702 21.068 33.9702 19.028C33.9702 16.964 34.3902 15.152 35.2302 13.592C36.0702 12.032 37.2462 10.832 38.7582 9.992C40.2702 9.152 42.0102 8.732 43.9782 8.732C45.8742 8.732 47.5662 9.14 49.0542 9.956C50.5662 10.772 51.7302 11.936 52.5462 13.448C53.3862 14.936 53.8062 16.652 53.8062 18.596ZM48.5862 17.156C48.5622 15.86 48.0942 14.828 47.1822 14.06C46.2702 13.268 45.1542 12.872 43.8342 12.872C42.5862 12.872 41.5302 13.256 40.6662 14.024C39.8262 14.768 39.3102 15.812 39.1182 17.156H48.5862Z" fill="#384652"/>
<path d="M64.1809 29.252C62.4289 29.252 60.8449 28.952 59.4289 28.352C58.0369 27.752 56.9329 26.888 56.1169 25.76C55.3009 24.632 54.8809 23.3 54.8569 21.764H60.2569C60.3289 22.796 60.6889 23.612 61.3369 24.212C62.0089 24.812 62.9209 25.112 64.0729 25.112C65.2489 25.112 66.1729 24.836 66.8449 24.284C67.5169 23.708 67.8529 22.964 67.8529 22.052C67.8529 21.308 67.6249 20.696 67.1689 20.216C66.7129 19.736 66.1369 19.364 65.4409 19.1C64.7689 18.812 63.8329 18.5 62.6329 18.164C61.0009 17.684 59.6689 17.216 58.6369 16.76C57.6289 16.28 56.7529 15.572 56.0089 14.636C55.2889 13.676 54.9289 12.404 54.9289 10.82C54.9289 9.332 55.3009 8.036 56.0449 6.932C56.7889 5.828 57.8329 4.988 59.1769 4.412C60.5209 3.812 62.0569 3.512 63.7849 3.512C66.3769 3.512 68.4769 4.148 70.0849 5.42C71.7169 6.668 72.6169 8.42 72.7849 10.676H67.2409C67.1929 9.812 66.8209 9.104 66.1249 8.552C65.4529 7.976 64.5529 7.688 63.4249 7.688C62.4409 7.688 61.6489 7.94 61.0489 8.444C60.4729 8.948 60.1849 9.68 60.1849 10.64C60.1849 11.312 60.4009 11.876 60.8329 12.332C61.2889 12.764 61.8409 13.124 62.4889 13.412C63.1609 13.676 64.0969 13.988 65.2969 14.348C66.9289 14.828 68.2609 15.308 69.2929 15.788C70.3249 16.268 71.2129 16.988 71.9569 17.948C72.7009 18.908 73.0729 20.168 73.0729 21.728C73.0729 23.072 72.7249 24.32 72.0289 25.472C71.3329 26.624 70.3129 27.548 68.9689 28.244C67.6249 28.916 66.0289 29.252 64.1809 29.252ZM78.0184 6.68C77.1304 6.68 76.3864 6.404 75.7864 5.852C75.2104 5.276 74.9224 4.568 74.9224 3.728C74.9224 2.888 75.2104 2.192 75.7864 1.64C76.3864 1.064 77.1304 0.775999 78.0184 0.775999C78.9064 0.775999 79.6384 1.064 80.2144 1.64C80.8144 2.192 81.1144 2.888 81.1144 3.728C81.1144 4.568 80.8144 5.276 80.2144 5.852C79.6384 6.404 78.9064 6.68 78.0184 6.68ZM80.5024 9.056V29H75.4624V9.056H80.5024ZM89.37 13.196V22.844C89.37 23.516 89.526 24.008 89.838 24.32C90.174 24.608 90.726 24.752 91.494 24.752H93.834V29H90.666C86.418 29 84.294 26.936 84.294 22.808V13.196H81.918V9.056H84.294V4.124H89.37V9.056H93.834V13.196H89.37ZM114.019 18.596C114.019 19.316 113.971 19.964 113.875 20.54H99.295C99.415 21.98 99.919 23.108 100.807 23.924C101.695 24.74 102.787 25.148 104.083 25.148C105.955 25.148 107.287 24.344 108.079 22.736H113.515C112.939 24.656 111.835 26.24 110.203 27.488C108.571 28.712 106.567 29.324 104.191 29.324C102.271 29.324 100.543 28.904 99.007 28.064C97.495 27.2 96.307 25.988 95.443 24.428C94.603 22.868 94.183 21.068 94.183 19.028C94.183 16.964 94.603 15.152 95.443 13.592C96.283 12.032 97.459 10.832 98.971 9.992C100.483 9.152 102.223 8.732 104.191 8.732C106.087 8.732 107.779 9.14 109.267 9.956C110.779 10.772 111.943 11.936 112.759 13.448C113.599 14.936 114.019 16.652 114.019 18.596ZM108.799 17.156C108.775 15.86 108.307 14.828 107.395 14.06C106.483 13.268 105.367 12.872 104.047 12.872C102.799 12.872 101.743 13.256 100.879 14.024C100.039 14.768 99.523 15.812 99.331 17.156H108.799Z" fill="#8A36F5"/>
</svg>
